<svg width="24" height="24" viewBox="0 0 24 24" fill="none" xmlns="http://www.w3.org/2000/svg">
    <path stroke="black"
          stroke-width="1.5"
          stroke-linejoin="round"
          stroke-linecap="round"
          d="M12 17.9174L7.15274 20.8221C6.9386 20.9576 6.71473 21.0157 6.48113 20.9964C6.24753 20.977 6.04313 20.8995 5.86792 20.764C5.69272 20.6284 5.55645 20.459 5.45912 20.2557C5.36178 20.0524 5.34232 19.8248 5.40072 19.5731L6.68553 14.0833L2.39308 10.3944C2.19841 10.2201 2.07674 10.0217 2.02808 9.79897C1.97941 9.57628 1.99401 9.35843 2.07188 9.14542C2.14975 8.93242 2.26655 8.75814 2.42228 8.62259C2.57802 8.48704 2.79215 8.3999 3.06469 8.36117L8.72956 7.86738L10.9196 2.69711C11.0169 2.46474 11.1678 2.29046 11.3722 2.17428C11.5766 2.05809 11.7859 2 12 2C12.2141 2 12.4234 2.05809 12.6278 2.17428C12.8322 2.29046 12.9831 2.46474 13.0804 2.69711L15.2704 7.86738L20.9353 8.36117C21.2078 8.3999 21.422 8.48704 21.5777 8.62259C21.7335 8.75814 21.8503 8.93242 21.9281 9.14542C22.006 9.35843 22.0206 9.57628 21.9719 9.79897C21.9233 10.0217 21.8016 10.2201 21.6069 10.3944L17.3145 14.0833L18.5993 19.5731C18.6577 19.8248 18.6382 20.0524 18.5409 20.2557C18.4435 20.459 18.3073 20.6284 18.1321 20.764C17.9569 20.8995 17.7525 20.977 17.5189 20.9964C17.2853 21.0157 17.0614 20.9576 16.8473 20.8221L12 17.9174Z"
    />
</svg>
